<mxfile host="app.diagrams.net" modified="2022-06-27T08:34:30.466Z" agent="5.0 (X11; Linux x86_64) AppleWebKit/537.36 (KHTML, like Gecko) Chrome/89.0.4389.90 Safari/537.36" etag="8igvZ3haOhWyAHOUy_6n" version="20.0.3" type="github">
  <diagram id="igFPyPbJTSOQKLyrehNV" name="Page-1">
    <mxGraphModel dx="3609" dy="851" grid="1" gridSize="10" guides="1" tooltips="1" connect="1" arrows="1" fold="1" page="1" pageScale="1" pageWidth="827" pageHeight="1169" math="0" shadow="0">
      <root>
        <mxCell id="0" />
        <mxCell id="1" parent="0" />
        <mxCell id="emEyEJCBUb9SOfy1nAko-114" value="Ip" style="swimlane;fontStyle=1;align=center;verticalAlign=top;childLayout=stackLayout;horizontal=1;startSize=26;horizontalStack=0;resizeParent=1;resizeParentMax=0;resizeLast=0;collapsible=1;marginBottom=0;" vertex="1" parent="1">
          <mxGeometry x="512.5" y="1335" width="70" height="38" as="geometry" />
        </mxCell>
        <mxCell id="emEyEJCBUb9SOfy1nAko-115" value="" style="line;strokeWidth=1;fillColor=none;align=left;verticalAlign=middle;spacingTop=-1;spacingLeft=3;spacingRight=3;rotatable=0;labelPosition=right;points=[];portConstraint=eastwest;" vertex="1" parent="emEyEJCBUb9SOfy1nAko-114">
          <mxGeometry y="26" width="70" height="12" as="geometry" />
        </mxCell>
        <mxCell id="MYu3rAOzo87Xg6MAHjO_-1" value="ConnectionEvent" style="swimlane;fontStyle=1;align=center;verticalAlign=top;childLayout=stackLayout;horizontal=1;startSize=26;horizontalStack=0;resizeParent=1;resizeParentMax=0;resizeLast=0;collapsible=1;marginBottom=0;" parent="1" vertex="1">
          <mxGeometry x="240" y="220" width="160" height="82" as="geometry" />
        </mxCell>
        <mxCell id="MYu3rAOzo87Xg6MAHjO_-2" value="RemoteClose&#xa;LocalClose&#xa;Connected&#xa;" style="text;strokeColor=none;fillColor=none;align=left;verticalAlign=top;spacingLeft=4;spacingRight=4;overflow=hidden;rotatable=0;points=[[0,0.5],[1,0.5]];portConstraint=eastwest;" parent="MYu3rAOzo87Xg6MAHjO_-1" vertex="1">
          <mxGeometry y="26" width="160" height="44" as="geometry" />
        </mxCell>
        <mxCell id="MYu3rAOzo87Xg6MAHjO_-3" value="" style="line;strokeWidth=1;fillColor=none;align=left;verticalAlign=middle;spacingTop=-1;spacingLeft=3;spacingRight=3;rotatable=0;labelPosition=right;points=[];portConstraint=eastwest;" parent="MYu3rAOzo87Xg6MAHjO_-1" vertex="1">
          <mxGeometry y="70" width="160" height="12" as="geometry" />
        </mxCell>
        <mxCell id="MYu3rAOzo87Xg6MAHjO_-6" value="ConnectionBufferType" style="swimlane;fontStyle=1;align=center;verticalAlign=top;childLayout=stackLayout;horizontal=1;startSize=26;horizontalStack=0;resizeParent=1;resizeParentMax=0;resizeLast=0;collapsible=1;marginBottom=0;" parent="1" vertex="1">
          <mxGeometry x="414" y="220" width="160" height="82" as="geometry" />
        </mxCell>
        <mxCell id="MYu3rAOzo87Xg6MAHjO_-7" value="Read&#xa;Write" style="text;strokeColor=none;fillColor=none;align=left;verticalAlign=top;spacingLeft=4;spacingRight=4;overflow=hidden;rotatable=0;points=[[0,0.5],[1,0.5]];portConstraint=eastwest;" parent="MYu3rAOzo87Xg6MAHjO_-6" vertex="1">
          <mxGeometry y="26" width="160" height="44" as="geometry" />
        </mxCell>
        <mxCell id="MYu3rAOzo87Xg6MAHjO_-8" value="" style="line;strokeWidth=1;fillColor=none;align=left;verticalAlign=middle;spacingTop=-1;spacingLeft=3;spacingRight=3;rotatable=0;labelPosition=right;points=[];portConstraint=eastwest;" parent="MYu3rAOzo87Xg6MAHjO_-6" vertex="1">
          <mxGeometry y="70" width="160" height="12" as="geometry" />
        </mxCell>
        <mxCell id="MYu3rAOzo87Xg6MAHjO_-10" value="ConnectionCallbacks" style="swimlane;fontStyle=1;align=center;verticalAlign=top;childLayout=stackLayout;horizontal=1;startSize=26;horizontalStack=0;resizeParent=1;resizeParentMax=0;resizeLast=0;collapsible=1;marginBottom=0;" parent="1" vertex="1">
          <mxGeometry x="340" y="330" width="290" height="82" as="geometry" />
        </mxCell>
        <mxCell id="MYu3rAOzo87Xg6MAHjO_-11" value="virtual void onEvent(ConnectionEvent event) PURE;" style="text;strokeColor=none;fillColor=none;align=left;verticalAlign=top;spacingLeft=4;spacingRight=4;overflow=hidden;rotatable=0;points=[[0,0.5],[1,0.5]];portConstraint=eastwest;" parent="MYu3rAOzo87Xg6MAHjO_-10" vertex="1">
          <mxGeometry y="26" width="290" height="44" as="geometry" />
        </mxCell>
        <mxCell id="MYu3rAOzo87Xg6MAHjO_-12" value="" style="line;strokeWidth=1;fillColor=none;align=left;verticalAlign=middle;spacingTop=-1;spacingLeft=3;spacingRight=3;rotatable=0;labelPosition=right;points=[];portConstraint=eastwest;" parent="MYu3rAOzo87Xg6MAHjO_-10" vertex="1">
          <mxGeometry y="70" width="290" height="12" as="geometry" />
        </mxCell>
        <mxCell id="MYu3rAOzo87Xg6MAHjO_-14" value="ConnectionCloseType" style="swimlane;fontStyle=1;align=center;verticalAlign=top;childLayout=stackLayout;horizontal=1;startSize=26;horizontalStack=0;resizeParent=1;resizeParentMax=0;resizeLast=0;collapsible=1;marginBottom=0;" parent="1" vertex="1">
          <mxGeometry x="70" y="220" width="160" height="82" as="geometry" />
        </mxCell>
        <mxCell id="MYu3rAOzo87Xg6MAHjO_-15" value="FlushWrite&#xa;NoFlush&#xa;FlushWriteAndDelay&#xa;" style="text;strokeColor=none;fillColor=none;align=left;verticalAlign=top;spacingLeft=4;spacingRight=4;overflow=hidden;rotatable=0;points=[[0,0.5],[1,0.5]];portConstraint=eastwest;" parent="MYu3rAOzo87Xg6MAHjO_-14" vertex="1">
          <mxGeometry y="26" width="160" height="44" as="geometry" />
        </mxCell>
        <mxCell id="MYu3rAOzo87Xg6MAHjO_-16" value="" style="line;strokeWidth=1;fillColor=none;align=left;verticalAlign=middle;spacingTop=-1;spacingLeft=3;spacingRight=3;rotatable=0;labelPosition=right;points=[];portConstraint=eastwest;" parent="MYu3rAOzo87Xg6MAHjO_-14" vertex="1">
          <mxGeometry y="70" width="160" height="12" as="geometry" />
        </mxCell>
        <mxCell id="MYu3rAOzo87Xg6MAHjO_-17" value="Connection" style="swimlane;fontStyle=1;align=center;verticalAlign=top;childLayout=stackLayout;horizontal=1;startSize=26;horizontalStack=0;resizeParent=1;resizeParentMax=0;resizeLast=0;collapsible=1;marginBottom=0;" parent="1" vertex="1">
          <mxGeometry x="640" y="440" width="270" height="300" as="geometry" />
        </mxCell>
        <mxCell id="MYu3rAOzo87Xg6MAHjO_-18" value="enum class State { Open, Closing, Closed };&#xa;addConnectionCallbacks(ConnectionCallbacks)&#xa;close()&#xa;dispatcher()&#xa;id()&#xa;readDisable()/readEnabled()&#xa;" style="text;strokeColor=none;fillColor=none;align=left;verticalAlign=top;spacingLeft=4;spacingRight=4;overflow=hidden;rotatable=0;points=[[0,0.5],[1,0.5]];portConstraint=eastwest;" parent="MYu3rAOzo87Xg6MAHjO_-17" vertex="1">
          <mxGeometry y="26" width="270" height="274" as="geometry" />
        </mxCell>
        <mxCell id="MYu3rAOzo87Xg6MAHjO_-20" value="BytesSentCb" style="swimlane;fontStyle=1;align=center;verticalAlign=top;childLayout=stackLayout;horizontal=1;startSize=26;horizontalStack=0;resizeParent=1;resizeParentMax=0;resizeLast=0;collapsible=1;marginBottom=0;" parent="1" vertex="1">
          <mxGeometry x="450" y="430" width="160" height="38" as="geometry" />
        </mxCell>
        <mxCell id="MYu3rAOzo87Xg6MAHjO_-22" value="" style="line;strokeWidth=1;fillColor=none;align=left;verticalAlign=middle;spacingTop=-1;spacingLeft=3;spacingRight=3;rotatable=0;labelPosition=right;points=[];portConstraint=eastwest;" parent="MYu3rAOzo87Xg6MAHjO_-20" vertex="1">
          <mxGeometry y="26" width="160" height="12" as="geometry" />
        </mxCell>
        <mxCell id="MYu3rAOzo87Xg6MAHjO_-24" value="SocketAddressProvider" style="swimlane;fontStyle=1;align=center;verticalAlign=top;childLayout=stackLayout;horizontal=1;startSize=26;horizontalStack=0;resizeParent=1;resizeParentMax=0;resizeLast=0;collapsible=1;marginBottom=0;" parent="1" vertex="1">
          <mxGeometry x="-101" y="1510" width="290" height="90" as="geometry" />
        </mxCell>
        <mxCell id="MYu3rAOzo87Xg6MAHjO_-25" value="localAddress()&#xa;remoteAddress()&#xa;directRemoteAddress()&#xa;connectionID()" style="text;strokeColor=none;fillColor=none;align=left;verticalAlign=top;spacingLeft=4;spacingRight=4;overflow=hidden;rotatable=0;points=[[0,0.5],[1,0.5]];portConstraint=eastwest;" parent="MYu3rAOzo87Xg6MAHjO_-24" vertex="1">
          <mxGeometry y="26" width="290" height="64" as="geometry" />
        </mxCell>
        <mxCell id="MYu3rAOzo87Xg6MAHjO_-27" value="SocketAddressSetter" style="swimlane;fontStyle=1;align=center;verticalAlign=top;childLayout=stackLayout;horizontal=1;startSize=26;horizontalStack=0;resizeParent=1;resizeParentMax=0;resizeLast=0;collapsible=1;marginBottom=0;" parent="1" vertex="1">
          <mxGeometry x="-100" y="1380" width="290" height="90" as="geometry" />
        </mxCell>
        <mxCell id="MYu3rAOzo87Xg6MAHjO_-28" value="setLocalAddress()&#xa;setRemoteAddress()&#xa;setConnectionID()&#xa;connectionID()" style="text;strokeColor=none;fillColor=none;align=left;verticalAlign=top;spacingLeft=4;spacingRight=4;overflow=hidden;rotatable=0;points=[[0,0.5],[1,0.5]];portConstraint=eastwest;" parent="MYu3rAOzo87Xg6MAHjO_-27" vertex="1">
          <mxGeometry y="26" width="290" height="64" as="geometry" />
        </mxCell>
        <mxCell id="MYu3rAOzo87Xg6MAHjO_-30" value="Extends" style="endArrow=block;endSize=16;endFill=0;html=1;rounded=0;exitX=0.497;exitY=0.984;exitDx=0;exitDy=0;exitPerimeter=0;entryX=0.5;entryY=0;entryDx=0;entryDy=0;" parent="1" source="MYu3rAOzo87Xg6MAHjO_-28" target="MYu3rAOzo87Xg6MAHjO_-24" edge="1">
          <mxGeometry width="160" relative="1" as="geometry">
            <mxPoint x="110.97000000000025" y="1522.4479999999999" as="sourcePoint" />
            <mxPoint x="109" y="1562" as="targetPoint" />
          </mxGeometry>
        </mxCell>
        <mxCell id="MYu3rAOzo87Xg6MAHjO_-31" value="Socket" style="swimlane;fontStyle=1;align=center;verticalAlign=top;childLayout=stackLayout;horizontal=1;startSize=26;horizontalStack=0;resizeParent=1;resizeParentMax=0;resizeLast=0;collapsible=1;marginBottom=0;" parent="1" vertex="1">
          <mxGeometry x="-400" y="590" width="390" height="300" as="geometry" />
        </mxCell>
        <mxCell id="MYu3rAOzo87Xg6MAHjO_-32" value="enum class Type { Stream, Datagram };&#xa;addressProvider()&#xa;ioHandle()&#xa;virtual Socket::Type socketType() const PURE; // stream or datagram&#xa;virtual Address::Type addressType() const PURE;&#xa;virtual absl::optional&lt;Address::IpVersion&gt; ipVersion() const PURE;&#xa;virtual void close() PURE;&#xa;bind()&#xa;listen()&#xa;connect()&#xa;ioctl()&#xa;setSocketOption()&#xa;getSocketOption()&#xa;Socket::Option&#xa;&#xa;" style="text;strokeColor=none;fillColor=none;align=left;verticalAlign=top;spacingLeft=4;spacingRight=4;overflow=hidden;rotatable=0;points=[[0,0.5],[1,0.5]];portConstraint=eastwest;" parent="MYu3rAOzo87Xg6MAHjO_-31" vertex="1">
          <mxGeometry y="26" width="390" height="274" as="geometry" />
        </mxCell>
        <mxCell id="MYu3rAOzo87Xg6MAHjO_-34" value="IpVersion" style="swimlane;fontStyle=1;align=center;verticalAlign=top;childLayout=stackLayout;horizontal=1;startSize=26;horizontalStack=0;resizeParent=1;resizeParentMax=0;resizeLast=0;collapsible=1;marginBottom=0;" parent="1" vertex="1">
          <mxGeometry x="336" y="1230" width="160" height="82" as="geometry" />
        </mxCell>
        <mxCell id="MYu3rAOzo87Xg6MAHjO_-35" value="v4&#xa;v6" style="text;strokeColor=none;fillColor=none;align=left;verticalAlign=top;spacingLeft=4;spacingRight=4;overflow=hidden;rotatable=0;points=[[0,0.5],[1,0.5]];portConstraint=eastwest;" parent="MYu3rAOzo87Xg6MAHjO_-34" vertex="1">
          <mxGeometry y="26" width="160" height="44" as="geometry" />
        </mxCell>
        <mxCell id="MYu3rAOzo87Xg6MAHjO_-36" value="" style="line;strokeWidth=1;fillColor=none;align=left;verticalAlign=middle;spacingTop=-1;spacingLeft=3;spacingRight=3;rotatable=0;labelPosition=right;points=[];portConstraint=eastwest;" parent="MYu3rAOzo87Xg6MAHjO_-34" vertex="1">
          <mxGeometry y="70" width="160" height="12" as="geometry" />
        </mxCell>
        <mxCell id="MYu3rAOzo87Xg6MAHjO_-37" value="Ipv4" style="swimlane;fontStyle=1;align=center;verticalAlign=top;childLayout=stackLayout;horizontal=1;startSize=26;horizontalStack=0;resizeParent=1;resizeParentMax=0;resizeLast=0;collapsible=1;marginBottom=0;" parent="1" vertex="1">
          <mxGeometry x="516" y="1230" width="70" height="38" as="geometry" />
        </mxCell>
        <mxCell id="MYu3rAOzo87Xg6MAHjO_-39" value="" style="line;strokeWidth=1;fillColor=none;align=left;verticalAlign=middle;spacingTop=-1;spacingLeft=3;spacingRight=3;rotatable=0;labelPosition=right;points=[];portConstraint=eastwest;" parent="MYu3rAOzo87Xg6MAHjO_-37" vertex="1">
          <mxGeometry y="26" width="70" height="12" as="geometry" />
        </mxCell>
        <mxCell id="MYu3rAOzo87Xg6MAHjO_-40" value="Ipv6" style="swimlane;fontStyle=1;align=center;verticalAlign=top;childLayout=stackLayout;horizontal=1;startSize=26;horizontalStack=0;resizeParent=1;resizeParentMax=0;resizeLast=0;collapsible=1;marginBottom=0;" parent="1" vertex="1">
          <mxGeometry x="596" y="1230" width="70" height="38" as="geometry" />
        </mxCell>
        <mxCell id="MYu3rAOzo87Xg6MAHjO_-42" value="" style="line;strokeWidth=1;fillColor=none;align=left;verticalAlign=middle;spacingTop=-1;spacingLeft=3;spacingRight=3;rotatable=0;labelPosition=right;points=[];portConstraint=eastwest;" parent="MYu3rAOzo87Xg6MAHjO_-40" vertex="1">
          <mxGeometry y="26" width="70" height="12" as="geometry" />
        </mxCell>
        <mxCell id="MYu3rAOzo87Xg6MAHjO_-43" value="Pipe" style="swimlane;fontStyle=1;align=center;verticalAlign=top;childLayout=stackLayout;horizontal=1;startSize=26;horizontalStack=0;resizeParent=1;resizeParentMax=0;resizeLast=0;collapsible=1;marginBottom=0;" parent="1" vertex="1">
          <mxGeometry x="607.5" y="1334" width="70" height="38" as="geometry" />
        </mxCell>
        <mxCell id="MYu3rAOzo87Xg6MAHjO_-45" value="" style="line;strokeWidth=1;fillColor=none;align=left;verticalAlign=middle;spacingTop=-1;spacingLeft=3;spacingRight=3;rotatable=0;labelPosition=right;points=[];portConstraint=eastwest;" parent="MYu3rAOzo87Xg6MAHjO_-43" vertex="1">
          <mxGeometry y="26" width="70" height="12" as="geometry" />
        </mxCell>
        <mxCell id="MYu3rAOzo87Xg6MAHjO_-48" value="IOHandle" style="swimlane;fontStyle=1;align=center;verticalAlign=top;childLayout=stackLayout;horizontal=1;startSize=26;horizontalStack=0;resizeParent=1;resizeParentMax=0;resizeLast=0;collapsible=1;marginBottom=0;" parent="1" vertex="1">
          <mxGeometry x="-610" y="590" width="160" height="260" as="geometry" />
        </mxCell>
        <mxCell id="MYu3rAOzo87Xg6MAHjO_-49" value="readv()&#xa;read()&#xa;writev()&#xa;write()&#xa;sendmsg()&#xa;recvmsg()&#xa;recvmmsg()&#xa;recv()&#xa;bind()&#xa;listen()&#xa;accpet()&#xa;connect()&#xa;setOption()&#xa;getOption()&#xa;ioctl()&#xa;......" style="text;strokeColor=none;fillColor=none;align=left;verticalAlign=top;spacingLeft=4;spacingRight=4;overflow=hidden;rotatable=0;points=[[0,0.5],[1,0.5]];portConstraint=eastwest;" parent="MYu3rAOzo87Xg6MAHjO_-48" vertex="1">
          <mxGeometry y="26" width="160" height="234" as="geometry" />
        </mxCell>
        <mxCell id="MYu3rAOzo87Xg6MAHjO_-52" value="IoSocketHandleImpl" style="swimlane;fontStyle=1;align=center;verticalAlign=top;childLayout=stackLayout;horizontal=1;startSize=26;horizontalStack=0;resizeParent=1;resizeParentMax=0;resizeLast=0;collapsible=1;marginBottom=0;" parent="1" vertex="1">
          <mxGeometry x="-610" y="892" width="160" height="260" as="geometry" />
        </mxCell>
        <mxCell id="MYu3rAOzo87Xg6MAHjO_-53" value="readv()&#xa;read()&#xa;writev()&#xa;write()&#xa;sendmsg()&#xa;recvmsg()&#xa;recvmmsg()&#xa;recv()&#xa;bind()&#xa;listen()&#xa;accpet()&#xa;connect()&#xa;setOption()&#xa;getOption()&#xa;ioctl()&#xa;......" style="text;strokeColor=none;fillColor=none;align=left;verticalAlign=top;spacingLeft=4;spacingRight=4;overflow=hidden;rotatable=0;points=[[0,0.5],[1,0.5]];portConstraint=eastwest;" parent="MYu3rAOzo87Xg6MAHjO_-52" vertex="1">
          <mxGeometry y="26" width="160" height="234" as="geometry" />
        </mxCell>
        <mxCell id="MYu3rAOzo87Xg6MAHjO_-54" value="SocketImpl" style="swimlane;fontStyle=1;align=center;verticalAlign=top;childLayout=stackLayout;horizontal=1;startSize=26;horizontalStack=0;resizeParent=1;resizeParentMax=0;resizeLast=0;collapsible=1;marginBottom=0;" parent="1" vertex="1">
          <mxGeometry x="-280" y="940" width="160" height="260" as="geometry" />
        </mxCell>
        <mxCell id="MYu3rAOzo87Xg6MAHjO_-55" value="readv()&#xa;read()&#xa;writev()&#xa;write()&#xa;sendmsg()&#xa;recvmsg()&#xa;recvmmsg()&#xa;recv()&#xa;bind()&#xa;listen()&#xa;accpet()&#xa;connect()&#xa;setOption()&#xa;getOption()&#xa;ioctl()&#xa;......" style="text;strokeColor=none;fillColor=none;align=left;verticalAlign=top;spacingLeft=4;spacingRight=4;overflow=hidden;rotatable=0;points=[[0,0.5],[1,0.5]];portConstraint=eastwest;" parent="MYu3rAOzo87Xg6MAHjO_-54" vertex="1">
          <mxGeometry y="26" width="160" height="234" as="geometry" />
        </mxCell>
        <mxCell id="MYu3rAOzo87Xg6MAHjO_-56" value="SocketAddressSetterImpl" style="swimlane;fontStyle=1;align=center;verticalAlign=top;childLayout=stackLayout;horizontal=1;startSize=26;horizontalStack=0;resizeParent=1;resizeParentMax=0;resizeLast=0;collapsible=1;marginBottom=0;" parent="1" vertex="1">
          <mxGeometry x="-100" y="1260" width="290" height="90" as="geometry" />
        </mxCell>
        <mxCell id="MYu3rAOzo87Xg6MAHjO_-57" value="setLocalAddress()&#xa;setRemoteAddress()&#xa;setConnectionID()&#xa;connectionID()" style="text;strokeColor=none;fillColor=none;align=left;verticalAlign=top;spacingLeft=4;spacingRight=4;overflow=hidden;rotatable=0;points=[[0,0.5],[1,0.5]];portConstraint=eastwest;" parent="MYu3rAOzo87Xg6MAHjO_-56" vertex="1">
          <mxGeometry y="26" width="290" height="64" as="geometry" />
        </mxCell>
        <mxCell id="MYu3rAOzo87Xg6MAHjO_-61" value="" style="endArrow=block;dashed=1;endFill=0;endSize=12;html=1;rounded=0;exitX=0.5;exitY=0;exitDx=0;exitDy=0;" parent="1" source="MYu3rAOzo87Xg6MAHjO_-54" target="MYu3rAOzo87Xg6MAHjO_-32" edge="1">
          <mxGeometry width="160" relative="1" as="geometry">
            <mxPoint x="-180" y="930" as="sourcePoint" />
            <mxPoint x="-20" y="930" as="targetPoint" />
          </mxGeometry>
        </mxCell>
        <mxCell id="MYu3rAOzo87Xg6MAHjO_-62" value="" style="endArrow=block;dashed=1;endFill=0;endSize=12;html=1;rounded=0;exitX=0.5;exitY=0;exitDx=0;exitDy=0;entryX=0.502;entryY=1.009;entryDx=0;entryDy=0;entryPerimeter=0;" parent="1" source="MYu3rAOzo87Xg6MAHjO_-52" target="MYu3rAOzo87Xg6MAHjO_-49" edge="1">
          <mxGeometry width="160" relative="1" as="geometry">
            <mxPoint x="-180" y="930" as="sourcePoint" />
            <mxPoint x="-20" y="930" as="targetPoint" />
          </mxGeometry>
        </mxCell>
        <mxCell id="MYu3rAOzo87Xg6MAHjO_-63" value="SocketInterface" style="swimlane;fontStyle=1;align=center;verticalAlign=top;childLayout=stackLayout;horizontal=1;startSize=26;horizontalStack=0;resizeParent=1;resizeParentMax=0;resizeLast=0;collapsible=1;marginBottom=0;" parent="1" vertex="1">
          <mxGeometry x="-820" y="591" width="160" height="82" as="geometry" />
        </mxCell>
        <mxCell id="MYu3rAOzo87Xg6MAHjO_-64" value="socket()&#xa;ipFamilySupported()&#xa;ioHandleForAddr()" style="text;strokeColor=none;fillColor=none;align=left;verticalAlign=top;spacingLeft=4;spacingRight=4;overflow=hidden;rotatable=0;points=[[0,0.5],[1,0.5]];portConstraint=eastwest;" parent="MYu3rAOzo87Xg6MAHjO_-63" vertex="1">
          <mxGeometry y="26" width="160" height="44" as="geometry" />
        </mxCell>
        <mxCell id="MYu3rAOzo87Xg6MAHjO_-65" value="" style="line;strokeWidth=1;fillColor=none;align=left;verticalAlign=middle;spacingTop=-1;spacingLeft=3;spacingRight=3;rotatable=0;labelPosition=right;points=[];portConstraint=eastwest;" parent="MYu3rAOzo87Xg6MAHjO_-63" vertex="1">
          <mxGeometry y="70" width="160" height="12" as="geometry" />
        </mxCell>
        <mxCell id="MYu3rAOzo87Xg6MAHjO_-66" value="&lt;b&gt;action&lt;/b&gt;: an abstract interface for all I/O operations" style="text;html=1;align=center;verticalAlign=middle;resizable=0;points=[];autosize=1;strokeColor=none;fillColor=none;" parent="1" vertex="1">
          <mxGeometry x="-675" y="560" width="290" height="30" as="geometry" />
        </mxCell>
        <mxCell id="MYu3rAOzo87Xg6MAHjO_-67" value="SocketInterfaceBase" style="swimlane;fontStyle=1;align=center;verticalAlign=top;childLayout=stackLayout;horizontal=1;startSize=26;horizontalStack=0;resizeParent=1;resizeParentMax=0;resizeLast=0;collapsible=1;marginBottom=0;" parent="1" vertex="1">
          <mxGeometry x="-910" y="732" width="160" height="38" as="geometry" />
        </mxCell>
        <mxCell id="MYu3rAOzo87Xg6MAHjO_-69" value="" style="line;strokeWidth=1;fillColor=none;align=left;verticalAlign=middle;spacingTop=-1;spacingLeft=3;spacingRight=3;rotatable=0;labelPosition=right;points=[];portConstraint=eastwest;" parent="MYu3rAOzo87Xg6MAHjO_-67" vertex="1">
          <mxGeometry y="26" width="160" height="12" as="geometry" />
        </mxCell>
        <mxCell id="MYu3rAOzo87Xg6MAHjO_-70" value="SocketInterfaceImpl" style="swimlane;fontStyle=1;align=center;verticalAlign=top;childLayout=stackLayout;horizontal=1;startSize=26;horizontalStack=0;resizeParent=1;resizeParentMax=0;resizeLast=0;collapsible=1;marginBottom=0;" parent="1" vertex="1">
          <mxGeometry x="-910" y="810" width="160" height="90" as="geometry" />
        </mxCell>
        <mxCell id="MYu3rAOzo87Xg6MAHjO_-71" value="socket()&#xa;makeSocket()&#xa;ipFamilySupported()&#xa;ioHandleForAddr()" style="text;strokeColor=none;fillColor=none;align=left;verticalAlign=top;spacingLeft=4;spacingRight=4;overflow=hidden;rotatable=0;points=[[0,0.5],[1,0.5]];portConstraint=eastwest;" parent="MYu3rAOzo87Xg6MAHjO_-70" vertex="1">
          <mxGeometry y="26" width="160" height="64" as="geometry" />
        </mxCell>
        <mxCell id="MYu3rAOzo87Xg6MAHjO_-73" value="BootstrapExtensionFactory" style="swimlane;fontStyle=1;align=center;verticalAlign=top;childLayout=stackLayout;horizontal=1;startSize=26;horizontalStack=0;resizeParent=1;resizeParentMax=0;resizeLast=0;collapsible=1;marginBottom=0;" parent="1" vertex="1">
          <mxGeometry x="-997" y="591" width="160" height="38" as="geometry" />
        </mxCell>
        <mxCell id="MYu3rAOzo87Xg6MAHjO_-74" value="" style="line;strokeWidth=1;fillColor=none;align=left;verticalAlign=middle;spacingTop=-1;spacingLeft=3;spacingRight=3;rotatable=0;labelPosition=right;points=[];portConstraint=eastwest;" parent="MYu3rAOzo87Xg6MAHjO_-73" vertex="1">
          <mxGeometry y="26" width="160" height="12" as="geometry" />
        </mxCell>
        <mxCell id="MYu3rAOzo87Xg6MAHjO_-76" value="Extends" style="endArrow=block;endSize=16;endFill=0;html=1;rounded=0;entryX=0.5;entryY=1;entryDx=0;entryDy=0;exitX=0.5;exitY=0;exitDx=0;exitDy=0;" parent="1" source="MYu3rAOzo87Xg6MAHjO_-67" target="MYu3rAOzo87Xg6MAHjO_-73" edge="1">
          <mxGeometry width="160" relative="1" as="geometry">
            <mxPoint x="-820" y="772" as="sourcePoint" />
            <mxPoint x="-660" y="772" as="targetPoint" />
          </mxGeometry>
        </mxCell>
        <mxCell id="MYu3rAOzo87Xg6MAHjO_-77" value="Extends" style="endArrow=block;endSize=16;endFill=0;html=1;rounded=0;entryX=0.5;entryY=1;entryDx=0;entryDy=0;exitX=0.52;exitY=-0.023;exitDx=0;exitDy=0;exitPerimeter=0;" parent="1" source="MYu3rAOzo87Xg6MAHjO_-67" target="MYu3rAOzo87Xg6MAHjO_-63" edge="1">
          <mxGeometry width="160" relative="1" as="geometry">
            <mxPoint x="-820" y="772" as="sourcePoint" />
            <mxPoint x="-660" y="772" as="targetPoint" />
          </mxGeometry>
        </mxCell>
        <mxCell id="MYu3rAOzo87Xg6MAHjO_-78" value="" style="endArrow=block;dashed=1;endFill=0;endSize=12;html=1;rounded=0;exitX=0.5;exitY=0;exitDx=0;exitDy=0;entryX=0.5;entryY=1;entryDx=0;entryDy=0;" parent="1" source="MYu3rAOzo87Xg6MAHjO_-70" target="MYu3rAOzo87Xg6MAHjO_-67" edge="1">
          <mxGeometry width="160" relative="1" as="geometry">
            <mxPoint x="-820" y="772" as="sourcePoint" />
            <mxPoint x="-660" y="772" as="targetPoint" />
          </mxGeometry>
        </mxCell>
        <mxCell id="MYu3rAOzo87Xg6MAHjO_-80" value="OsSysCallsImpl" style="swimlane;fontStyle=1;align=center;verticalAlign=top;childLayout=stackLayout;horizontal=1;startSize=26;horizontalStack=0;resizeParent=1;resizeParentMax=0;resizeLast=0;collapsible=1;marginBottom=0;" parent="1" vertex="1">
          <mxGeometry x="-1140" y="830" width="160" height="38" as="geometry" />
        </mxCell>
        <mxCell id="MYu3rAOzo87Xg6MAHjO_-82" value="" style="line;strokeWidth=1;fillColor=none;align=left;verticalAlign=middle;spacingTop=-1;spacingLeft=3;spacingRight=3;rotatable=0;labelPosition=right;points=[];portConstraint=eastwest;" parent="MYu3rAOzo87Xg6MAHjO_-80" vertex="1">
          <mxGeometry y="26" width="160" height="12" as="geometry" />
        </mxCell>
        <mxCell id="MYu3rAOzo87Xg6MAHjO_-83" value="Use" style="endArrow=open;endSize=12;dashed=1;html=1;rounded=0;exitX=0;exitY=0.5;exitDx=0;exitDy=0;entryX=1;entryY=0.5;entryDx=0;entryDy=0;" parent="1" source="MYu3rAOzo87Xg6MAHjO_-71" target="MYu3rAOzo87Xg6MAHjO_-80" edge="1">
          <mxGeometry width="160" relative="1" as="geometry">
            <mxPoint x="-810" y="850" as="sourcePoint" />
            <mxPoint x="-980" y="878" as="targetPoint" />
          </mxGeometry>
        </mxCell>
        <mxCell id="MYu3rAOzo87Xg6MAHjO_-84" value="OsSysCalls" style="swimlane;fontStyle=1;align=center;verticalAlign=top;childLayout=stackLayout;horizontal=1;startSize=26;horizontalStack=0;resizeParent=1;resizeParentMax=0;resizeLast=0;collapsible=1;marginBottom=0;" parent="1" vertex="1">
          <mxGeometry x="-1140" y="710" width="160" height="82" as="geometry" />
        </mxCell>
        <mxCell id="MYu3rAOzo87Xg6MAHjO_-85" value="bind()&#xa;chmod()&#xa;......" style="text;strokeColor=none;fillColor=none;align=left;verticalAlign=top;spacingLeft=4;spacingRight=4;overflow=hidden;rotatable=0;points=[[0,0.5],[1,0.5]];portConstraint=eastwest;" parent="MYu3rAOzo87Xg6MAHjO_-84" vertex="1">
          <mxGeometry y="26" width="160" height="44" as="geometry" />
        </mxCell>
        <mxCell id="MYu3rAOzo87Xg6MAHjO_-86" value="" style="line;strokeWidth=1;fillColor=none;align=left;verticalAlign=middle;spacingTop=-1;spacingLeft=3;spacingRight=3;rotatable=0;labelPosition=right;points=[];portConstraint=eastwest;" parent="MYu3rAOzo87Xg6MAHjO_-84" vertex="1">
          <mxGeometry y="70" width="160" height="12" as="geometry" />
        </mxCell>
        <mxCell id="MYu3rAOzo87Xg6MAHjO_-90" value="" style="endArrow=block;dashed=1;endFill=0;endSize=12;html=1;rounded=0;exitX=0.5;exitY=0;exitDx=0;exitDy=0;entryX=0.5;entryY=1;entryDx=0;entryDy=0;" parent="1" source="MYu3rAOzo87Xg6MAHjO_-80" target="MYu3rAOzo87Xg6MAHjO_-84" edge="1">
          <mxGeometry width="160" relative="1" as="geometry">
            <mxPoint x="-810" y="850" as="sourcePoint" />
            <mxPoint x="-650" y="850" as="targetPoint" />
          </mxGeometry>
        </mxCell>
        <mxCell id="MYu3rAOzo87Xg6MAHjO_-91" value="LinuxOsSysCalls" style="swimlane;fontStyle=1;align=center;verticalAlign=top;childLayout=stackLayout;horizontal=1;startSize=26;horizontalStack=0;resizeParent=1;resizeParentMax=0;resizeLast=0;collapsible=1;marginBottom=0;" parent="1" vertex="1">
          <mxGeometry x="-920" y="960" width="160" height="82" as="geometry" />
        </mxCell>
        <mxCell id="MYu3rAOzo87Xg6MAHjO_-92" value="sched_getaffinity()&#xa;......" style="text;strokeColor=none;fillColor=none;align=left;verticalAlign=top;spacingLeft=4;spacingRight=4;overflow=hidden;rotatable=0;points=[[0,0.5],[1,0.5]];portConstraint=eastwest;" parent="MYu3rAOzo87Xg6MAHjO_-91" vertex="1">
          <mxGeometry y="26" width="160" height="44" as="geometry" />
        </mxCell>
        <mxCell id="MYu3rAOzo87Xg6MAHjO_-93" value="" style="line;strokeWidth=1;fillColor=none;align=left;verticalAlign=middle;spacingTop=-1;spacingLeft=3;spacingRight=3;rotatable=0;labelPosition=right;points=[];portConstraint=eastwest;" parent="MYu3rAOzo87Xg6MAHjO_-91" vertex="1">
          <mxGeometry y="70" width="160" height="12" as="geometry" />
        </mxCell>
        <mxCell id="MYu3rAOzo87Xg6MAHjO_-94" value="HotRestartOsSysCalls" style="swimlane;fontStyle=1;align=center;verticalAlign=top;childLayout=stackLayout;horizontal=1;startSize=26;horizontalStack=0;resizeParent=1;resizeParentMax=0;resizeLast=0;collapsible=1;marginBottom=0;" parent="1" vertex="1">
          <mxGeometry x="-1100" y="960" width="160" height="82" as="geometry" />
        </mxCell>
        <mxCell id="MYu3rAOzo87Xg6MAHjO_-95" value="shmOpen()&#xa;shmUnlink()" style="text;strokeColor=none;fillColor=none;align=left;verticalAlign=top;spacingLeft=4;spacingRight=4;overflow=hidden;rotatable=0;points=[[0,0.5],[1,0.5]];portConstraint=eastwest;" parent="MYu3rAOzo87Xg6MAHjO_-94" vertex="1">
          <mxGeometry y="26" width="160" height="44" as="geometry" />
        </mxCell>
        <mxCell id="MYu3rAOzo87Xg6MAHjO_-96" value="" style="line;strokeWidth=1;fillColor=none;align=left;verticalAlign=middle;spacingTop=-1;spacingLeft=3;spacingRight=3;rotatable=0;labelPosition=right;points=[];portConstraint=eastwest;" parent="MYu3rAOzo87Xg6MAHjO_-94" vertex="1">
          <mxGeometry y="70" width="160" height="12" as="geometry" />
        </mxCell>
        <mxCell id="MYu3rAOzo87Xg6MAHjO_-97" value="LinuxOsSysCallsImpl" style="swimlane;fontStyle=1;align=center;verticalAlign=top;childLayout=stackLayout;horizontal=1;startSize=26;horizontalStack=0;resizeParent=1;resizeParentMax=0;resizeLast=0;collapsible=1;marginBottom=0;" parent="1" vertex="1">
          <mxGeometry x="-920" y="1080" width="160" height="38" as="geometry" />
        </mxCell>
        <mxCell id="MYu3rAOzo87Xg6MAHjO_-99" value="" style="line;strokeWidth=1;fillColor=none;align=left;verticalAlign=middle;spacingTop=-1;spacingLeft=3;spacingRight=3;rotatable=0;labelPosition=right;points=[];portConstraint=eastwest;" parent="MYu3rAOzo87Xg6MAHjO_-97" vertex="1">
          <mxGeometry y="26" width="160" height="12" as="geometry" />
        </mxCell>
        <mxCell id="MYu3rAOzo87Xg6MAHjO_-100" value="" style="endArrow=block;dashed=1;endFill=0;endSize=12;html=1;rounded=0;exitX=0.5;exitY=0;exitDx=0;exitDy=0;entryX=0.5;entryY=1;entryDx=0;entryDy=0;" parent="1" edge="1">
          <mxGeometry width="160" relative="1" as="geometry">
            <mxPoint x="-840.28" y="1080" as="sourcePoint" />
            <mxPoint x="-840.28" y="1042.0000000000002" as="targetPoint" />
          </mxGeometry>
        </mxCell>
        <mxCell id="MYu3rAOzo87Xg6MAHjO_-101" value="HotRestartOsSysCallsImpl" style="swimlane;fontStyle=1;align=center;verticalAlign=top;childLayout=stackLayout;horizontal=1;startSize=26;horizontalStack=0;resizeParent=1;resizeParentMax=0;resizeLast=0;collapsible=1;marginBottom=0;" parent="1" vertex="1">
          <mxGeometry x="-1100" y="1080" width="160" height="38" as="geometry" />
        </mxCell>
        <mxCell id="MYu3rAOzo87Xg6MAHjO_-102" value="" style="line;strokeWidth=1;fillColor=none;align=left;verticalAlign=middle;spacingTop=-1;spacingLeft=3;spacingRight=3;rotatable=0;labelPosition=right;points=[];portConstraint=eastwest;" parent="MYu3rAOzo87Xg6MAHjO_-101" vertex="1">
          <mxGeometry y="26" width="160" height="12" as="geometry" />
        </mxCell>
        <mxCell id="MYu3rAOzo87Xg6MAHjO_-103" value="" style="endArrow=block;dashed=1;endFill=0;endSize=12;html=1;rounded=0;exitX=0.5;exitY=0;exitDx=0;exitDy=0;entryX=0.5;entryY=1;entryDx=0;entryDy=0;" parent="1" edge="1">
          <mxGeometry width="160" relative="1" as="geometry">
            <mxPoint x="-1020" y="1080" as="sourcePoint" />
            <mxPoint x="-1020" y="1042.0000000000002" as="targetPoint" />
          </mxGeometry>
        </mxCell>
        <mxCell id="MYu3rAOzo87Xg6MAHjO_-105" value="get socket(io handle)" style="text;html=1;align=center;verticalAlign=middle;resizable=0;points=[];autosize=1;strokeColor=none;fillColor=none;" parent="1" vertex="1">
          <mxGeometry x="-810" y="560" width="130" height="20" as="geometry" />
        </mxCell>
        <mxCell id="MYu3rAOzo87Xg6MAHjO_-107" value="1" style="endArrow=open;html=1;endSize=12;startArrow=diamondThin;startSize=14;startFill=1;edgeStyle=orthogonalEdgeStyle;align=left;verticalAlign=bottom;rounded=0;exitX=1;exitY=0.5;exitDx=0;exitDy=0;entryX=0;entryY=0.5;entryDx=0;entryDy=0;" parent="1" source="MYu3rAOzo87Xg6MAHjO_-53" target="MYu3rAOzo87Xg6MAHjO_-55" edge="1">
          <mxGeometry x="-1" y="3" relative="1" as="geometry">
            <mxPoint x="-510" y="950" as="sourcePoint" />
            <mxPoint x="-350" y="950" as="targetPoint" />
          </mxGeometry>
        </mxCell>
        <mxCell id="MYu3rAOzo87Xg6MAHjO_-108" value="&lt;b&gt;make os socket&amp;nbsp;&lt;/b&gt;" style="text;html=1;align=center;verticalAlign=middle;resizable=0;points=[];autosize=1;strokeColor=none;fillColor=none;" parent="1" vertex="1">
          <mxGeometry x="-905" y="895" width="120" height="30" as="geometry" />
        </mxCell>
        <mxCell id="MYu3rAOzo87Xg6MAHjO_-109" value="" style="endArrow=open;endFill=1;endSize=12;html=1;rounded=0;entryX=0;entryY=0.5;entryDx=0;entryDy=0;exitX=1.013;exitY=0.406;exitDx=0;exitDy=0;exitPerimeter=0;" parent="1" source="MYu3rAOzo87Xg6MAHjO_-71" target="MYu3rAOzo87Xg6MAHjO_-49" edge="1">
          <mxGeometry width="160" relative="1" as="geometry">
            <mxPoint x="-795" y="1010" as="sourcePoint" />
            <mxPoint x="-635" y="1010" as="targetPoint" />
          </mxGeometry>
        </mxCell>
        <mxCell id="MYu3rAOzo87Xg6MAHjO_-110" value="ListenSocketImpl" style="swimlane;fontStyle=1;align=center;verticalAlign=top;childLayout=stackLayout;horizontal=1;startSize=26;horizontalStack=0;resizeParent=1;resizeParentMax=0;resizeLast=0;collapsible=1;marginBottom=0;fillColor=#D5E8D4;" parent="1" vertex="1">
          <mxGeometry x="-30" y="956" width="160" height="260" as="geometry" />
        </mxCell>
        <mxCell id="MYu3rAOzo87Xg6MAHjO_-111" value="readv()&#xa;read()&#xa;writev()&#xa;write()&#xa;sendmsg()&#xa;recvmsg()&#xa;recvmmsg()&#xa;recv()&#xa;bind()&#xa;listen()&#xa;accpet()&#xa;connect()&#xa;setOption()&#xa;getOption()&#xa;ioctl()&#xa;......" style="text;strokeColor=none;fillColor=#D5E8D4;align=left;verticalAlign=top;spacingLeft=4;spacingRight=4;overflow=hidden;rotatable=0;points=[[0,0.5],[1,0.5]];portConstraint=eastwest;" parent="MYu3rAOzo87Xg6MAHjO_-110" vertex="1">
          <mxGeometry y="26" width="160" height="234" as="geometry" />
        </mxCell>
        <mxCell id="MYu3rAOzo87Xg6MAHjO_-112" value="" style="endArrow=block;dashed=1;endFill=0;endSize=12;html=1;rounded=0;entryX=1;entryY=0.5;entryDx=0;entryDy=0;exitX=0;exitY=0.5;exitDx=0;exitDy=0;" parent="1" source="MYu3rAOzo87Xg6MAHjO_-111" target="MYu3rAOzo87Xg6MAHjO_-55" edge="1">
          <mxGeometry width="160" relative="1" as="geometry">
            <mxPoint x="-310" y="1240" as="sourcePoint" />
            <mxPoint x="-150" y="1240" as="targetPoint" />
          </mxGeometry>
        </mxCell>
        <mxCell id="emEyEJCBUb9SOfy1nAko-1" value="&lt;b&gt;a socket concept&lt;/b&gt;" style="text;html=1;align=center;verticalAlign=middle;resizable=0;points=[];autosize=1;strokeColor=none;fillColor=none;" vertex="1" parent="1">
          <mxGeometry x="-260" y="560" width="120" height="30" as="geometry" />
        </mxCell>
        <mxCell id="emEyEJCBUb9SOfy1nAko-2" value="&lt;b&gt;socket action&lt;/b&gt;: an impl for socket I/O operations" style="text;html=1;align=center;verticalAlign=middle;resizable=0;points=[];autosize=1;strokeColor=none;fillColor=none;" vertex="1" parent="1">
          <mxGeometry x="-675" y="1152" width="280" height="30" as="geometry" />
        </mxCell>
        <mxCell id="emEyEJCBUb9SOfy1nAko-3" value="&lt;b&gt;a socket impl. all socket will impl this&lt;/b&gt;" style="text;html=1;align=center;verticalAlign=middle;resizable=0;points=[];autosize=1;strokeColor=none;fillColor=none;" vertex="1" parent="1">
          <mxGeometry x="-320" y="1200" width="240" height="30" as="geometry" />
        </mxCell>
        <mxCell id="emEyEJCBUb9SOfy1nAko-4" value="TcpListenSocket" style="swimlane;fontStyle=1;align=center;verticalAlign=top;childLayout=stackLayout;horizontal=1;startSize=26;horizontalStack=0;resizeParent=1;resizeParentMax=0;resizeLast=0;collapsible=1;marginBottom=0;" vertex="1" parent="1">
          <mxGeometry x="530" y="990" width="160" height="60" as="geometry" />
        </mxCell>
        <mxCell id="emEyEJCBUb9SOfy1nAko-6" value="UdpListenSocket" style="swimlane;fontStyle=1;align=center;verticalAlign=top;childLayout=stackLayout;horizontal=1;startSize=26;horizontalStack=0;resizeParent=1;resizeParentMax=0;resizeLast=0;collapsible=1;marginBottom=0;" vertex="1" parent="1">
          <mxGeometry x="530" y="1069" width="160" height="60" as="geometry" />
        </mxCell>
        <mxCell id="emEyEJCBUb9SOfy1nAko-7" value="ConnectionSocket" style="swimlane;fontStyle=1;align=center;verticalAlign=top;childLayout=stackLayout;horizontal=1;startSize=26;horizontalStack=0;resizeParent=1;resizeParentMax=0;resizeLast=0;collapsible=1;marginBottom=0;" vertex="1" parent="1">
          <mxGeometry x="150" y="753" width="160" height="60" as="geometry" />
        </mxCell>
        <mxCell id="emEyEJCBUb9SOfy1nAko-9" value="ScopeTrackedObject" style="swimlane;fontStyle=1;align=center;verticalAlign=top;childLayout=stackLayout;horizontal=1;startSize=26;horizontalStack=0;resizeParent=1;resizeParentMax=0;resizeLast=0;collapsible=1;marginBottom=0;" vertex="1" parent="1">
          <mxGeometry x="150" y="660" width="160" height="60" as="geometry" />
        </mxCell>
        <mxCell id="emEyEJCBUb9SOfy1nAko-11" value="&lt;b&gt;for sevver side, means accept socket.&amp;nbsp;&lt;br&gt;for client side, means connect socket&lt;br&gt;&lt;/b&gt;" style="text;html=1;align=center;verticalAlign=middle;resizable=0;points=[];autosize=1;strokeColor=none;fillColor=none;" vertex="1" parent="1">
          <mxGeometry x="230" y="810" width="240" height="40" as="geometry" />
        </mxCell>
        <mxCell id="emEyEJCBUb9SOfy1nAko-26" value="TcpListenerCallbacks" style="swimlane;fontStyle=1;align=center;verticalAlign=top;childLayout=stackLayout;horizontal=1;startSize=26;horizontalStack=0;resizeParent=1;resizeParentMax=0;resizeLast=0;collapsible=1;marginBottom=0;" vertex="1" parent="1">
          <mxGeometry x="780" y="1895" width="160" height="94" as="geometry" />
        </mxCell>
        <mxCell id="emEyEJCBUb9SOfy1nAko-28" value="" style="line;strokeWidth=1;fillColor=none;align=left;verticalAlign=middle;spacingTop=-1;spacingLeft=3;spacingRight=3;rotatable=0;labelPosition=right;points=[];portConstraint=eastwest;" vertex="1" parent="emEyEJCBUb9SOfy1nAko-26">
          <mxGeometry y="26" width="160" height="8" as="geometry" />
        </mxCell>
        <mxCell id="emEyEJCBUb9SOfy1nAko-29" value="onAccept()&#xa;onReject()" style="text;strokeColor=none;fillColor=none;align=left;verticalAlign=top;spacingLeft=4;spacingRight=4;overflow=hidden;rotatable=0;points=[[0,0.5],[1,0.5]];portConstraint=eastwest;" vertex="1" parent="emEyEJCBUb9SOfy1nAko-26">
          <mxGeometry y="34" width="160" height="60" as="geometry" />
        </mxCell>
        <mxCell id="emEyEJCBUb9SOfy1nAko-32" value="UdpListenerCallbacks" style="swimlane;fontStyle=1;align=center;verticalAlign=top;childLayout=stackLayout;horizontal=1;startSize=26;horizontalStack=0;resizeParent=1;resizeParentMax=0;resizeLast=0;collapsible=1;marginBottom=0;" vertex="1" parent="1">
          <mxGeometry x="1020" y="1895" width="160" height="120" as="geometry" />
        </mxCell>
        <mxCell id="emEyEJCBUb9SOfy1nAko-33" value="" style="line;strokeWidth=1;fillColor=none;align=left;verticalAlign=middle;spacingTop=-1;spacingLeft=3;spacingRight=3;rotatable=0;labelPosition=right;points=[];portConstraint=eastwest;" vertex="1" parent="emEyEJCBUb9SOfy1nAko-32">
          <mxGeometry y="26" width="160" height="8" as="geometry" />
        </mxCell>
        <mxCell id="emEyEJCBUb9SOfy1nAko-34" value="onData()&#xa;onReadReady()&#xa;onWriteReady()&#xa;workerIndex()&#xa;post()&#xa;" style="text;strokeColor=none;fillColor=none;align=left;verticalAlign=top;spacingLeft=4;spacingRight=4;overflow=hidden;rotatable=0;points=[[0,0.5],[1,0.5]];portConstraint=eastwest;" vertex="1" parent="emEyEJCBUb9SOfy1nAko-32">
          <mxGeometry y="34" width="160" height="86" as="geometry" />
        </mxCell>
        <mxCell id="emEyEJCBUb9SOfy1nAko-36" value="&lt;b&gt;Callbacks invoked by a listener&lt;/b&gt;" style="text;html=1;align=center;verticalAlign=middle;resizable=0;points=[];autosize=1;strokeColor=none;fillColor=none;" vertex="1" parent="1">
          <mxGeometry x="910" y="1855" width="200" height="30" as="geometry" />
        </mxCell>
        <mxCell id="emEyEJCBUb9SOfy1nAko-37" value="UdpRecvData" style="swimlane;fontStyle=1;align=center;verticalAlign=top;childLayout=stackLayout;horizontal=1;startSize=26;horizontalStack=0;resizeParent=1;resizeParentMax=0;resizeLast=0;collapsible=1;marginBottom=0;" vertex="1" parent="1">
          <mxGeometry x="1260" y="1895" width="160" height="34" as="geometry" />
        </mxCell>
        <mxCell id="emEyEJCBUb9SOfy1nAko-39" value="" style="line;strokeWidth=1;fillColor=none;align=left;verticalAlign=middle;spacingTop=-1;spacingLeft=3;spacingRight=3;rotatable=0;labelPosition=right;points=[];portConstraint=eastwest;" vertex="1" parent="emEyEJCBUb9SOfy1nAko-37">
          <mxGeometry y="26" width="160" height="8" as="geometry" />
        </mxCell>
        <mxCell id="emEyEJCBUb9SOfy1nAko-41" value="UdpSendData" style="swimlane;fontStyle=1;align=center;verticalAlign=top;childLayout=stackLayout;horizontal=1;startSize=26;horizontalStack=0;resizeParent=1;resizeParentMax=0;resizeLast=0;collapsible=1;marginBottom=0;" vertex="1" parent="1">
          <mxGeometry x="1260" y="1945" width="160" height="34" as="geometry" />
        </mxCell>
        <mxCell id="emEyEJCBUb9SOfy1nAko-42" value="" style="line;strokeWidth=1;fillColor=none;align=left;verticalAlign=middle;spacingTop=-1;spacingLeft=3;spacingRight=3;rotatable=0;labelPosition=right;points=[];portConstraint=eastwest;" vertex="1" parent="emEyEJCBUb9SOfy1nAko-41">
          <mxGeometry y="26" width="160" height="8" as="geometry" />
        </mxCell>
        <mxCell id="emEyEJCBUb9SOfy1nAko-43" value="Use" style="endArrow=open;endSize=12;dashed=1;html=1;rounded=0;entryX=0;entryY=0.5;entryDx=0;entryDy=0;" edge="1" parent="1" source="emEyEJCBUb9SOfy1nAko-34" target="emEyEJCBUb9SOfy1nAko-37">
          <mxGeometry width="160" relative="1" as="geometry">
            <mxPoint x="740" y="2075" as="sourcePoint" />
            <mxPoint x="900" y="2075" as="targetPoint" />
          </mxGeometry>
        </mxCell>
        <mxCell id="emEyEJCBUb9SOfy1nAko-44" value="Use" style="endArrow=open;endSize=12;dashed=1;html=1;rounded=0;entryX=0;entryY=0.5;entryDx=0;entryDy=0;exitX=1;exitY=0.151;exitDx=0;exitDy=0;exitPerimeter=0;" edge="1" parent="1" source="emEyEJCBUb9SOfy1nAko-34" target="emEyEJCBUb9SOfy1nAko-41">
          <mxGeometry width="160" relative="1" as="geometry">
            <mxPoint x="1190" y="1952" as="sourcePoint" />
            <mxPoint x="1270" y="1922" as="targetPoint" />
          </mxGeometry>
        </mxCell>
        <mxCell id="emEyEJCBUb9SOfy1nAko-45" value="Listener" style="swimlane;fontStyle=1;align=center;verticalAlign=top;childLayout=stackLayout;horizontal=1;startSize=26;horizontalStack=0;resizeParent=1;resizeParentMax=0;resizeLast=0;collapsible=1;marginBottom=0;" vertex="1" parent="1">
          <mxGeometry x="-220" y="1790" width="160" height="80" as="geometry" />
        </mxCell>
        <mxCell id="emEyEJCBUb9SOfy1nAko-47" value="" style="line;strokeWidth=1;fillColor=none;align=left;verticalAlign=middle;spacingTop=-1;spacingLeft=3;spacingRight=3;rotatable=0;labelPosition=right;points=[];portConstraint=eastwest;" vertex="1" parent="emEyEJCBUb9SOfy1nAko-45">
          <mxGeometry y="26" width="160" height="8" as="geometry" />
        </mxCell>
        <mxCell id="emEyEJCBUb9SOfy1nAko-48" value="enable()&#xa;disable()" style="text;strokeColor=none;fillColor=none;align=left;verticalAlign=top;spacingLeft=4;spacingRight=4;overflow=hidden;rotatable=0;points=[[0,0.5],[1,0.5]];portConstraint=eastwest;" vertex="1" parent="emEyEJCBUb9SOfy1nAko-45">
          <mxGeometry y="34" width="160" height="46" as="geometry" />
        </mxCell>
        <mxCell id="emEyEJCBUb9SOfy1nAko-49" value="UdpListener" style="swimlane;fontStyle=1;align=center;verticalAlign=top;childLayout=stackLayout;horizontal=1;startSize=26;horizontalStack=0;resizeParent=1;resizeParentMax=0;resizeLast=0;collapsible=1;marginBottom=0;" vertex="1" parent="1">
          <mxGeometry x="-350" y="1920" width="160" height="130" as="geometry" />
        </mxCell>
        <mxCell id="emEyEJCBUb9SOfy1nAko-50" value="" style="line;strokeWidth=1;fillColor=none;align=left;verticalAlign=middle;spacingTop=-1;spacingLeft=3;spacingRight=3;rotatable=0;labelPosition=right;points=[];portConstraint=eastwest;" vertex="1" parent="emEyEJCBUb9SOfy1nAko-49">
          <mxGeometry y="26" width="160" height="8" as="geometry" />
        </mxCell>
        <mxCell id="emEyEJCBUb9SOfy1nAko-51" value="dispatcher()&#xa;localAddress()&#xa;send()&#xa;flush()&#xa;activateRead()" style="text;strokeColor=none;fillColor=none;align=left;verticalAlign=top;spacingLeft=4;spacingRight=4;overflow=hidden;rotatable=0;points=[[0,0.5],[1,0.5]];portConstraint=eastwest;" vertex="1" parent="emEyEJCBUb9SOfy1nAko-49">
          <mxGeometry y="34" width="160" height="96" as="geometry" />
        </mxCell>
        <mxCell id="emEyEJCBUb9SOfy1nAko-52" value="UdpListenerWorkerRouter ?" style="swimlane;fontStyle=1;align=center;verticalAlign=top;childLayout=stackLayout;horizontal=1;startSize=26;horizontalStack=0;resizeParent=1;resizeParentMax=0;resizeLast=0;collapsible=1;marginBottom=0;" vertex="1" parent="1">
          <mxGeometry x="-440" y="1820" width="200" height="60" as="geometry" />
        </mxCell>
        <mxCell id="emEyEJCBUb9SOfy1nAko-54" value="" style="line;strokeWidth=1;fillColor=none;align=left;verticalAlign=middle;spacingTop=-1;spacingLeft=3;spacingRight=3;rotatable=0;labelPosition=right;points=[];portConstraint=eastwest;" vertex="1" parent="emEyEJCBUb9SOfy1nAko-52">
          <mxGeometry y="26" width="200" height="8" as="geometry" />
        </mxCell>
        <mxCell id="emEyEJCBUb9SOfy1nAko-55" value="+ method(type): type" style="text;strokeColor=none;fillColor=none;align=left;verticalAlign=top;spacingLeft=4;spacingRight=4;overflow=hidden;rotatable=0;points=[[0,0.5],[1,0.5]];portConstraint=eastwest;" vertex="1" parent="emEyEJCBUb9SOfy1nAko-52">
          <mxGeometry y="34" width="200" height="26" as="geometry" />
        </mxCell>
        <mxCell id="emEyEJCBUb9SOfy1nAko-56" value="" style="endArrow=block;dashed=1;endFill=0;endSize=12;html=1;rounded=0;entryX=0.469;entryY=0.978;entryDx=0;entryDy=0;entryPerimeter=0;exitX=0.5;exitY=0;exitDx=0;exitDy=0;" edge="1" parent="1" source="emEyEJCBUb9SOfy1nAko-49" target="emEyEJCBUb9SOfy1nAko-48">
          <mxGeometry width="160" relative="1" as="geometry">
            <mxPoint x="40" y="1920" as="sourcePoint" />
            <mxPoint x="200" y="1920" as="targetPoint" />
          </mxGeometry>
        </mxCell>
        <mxCell id="emEyEJCBUb9SOfy1nAko-57" value="ListenerManager" style="swimlane;fontStyle=1;align=center;verticalAlign=top;childLayout=stackLayout;horizontal=1;startSize=26;horizontalStack=0;resizeParent=1;resizeParentMax=0;resizeLast=0;collapsible=1;marginBottom=0;" vertex="1" parent="1">
          <mxGeometry x="27" y="1930" width="160" height="180" as="geometry" />
        </mxCell>
        <mxCell id="emEyEJCBUb9SOfy1nAko-58" value="" style="line;strokeWidth=1;fillColor=none;align=left;verticalAlign=middle;spacingTop=-1;spacingLeft=3;spacingRight=3;rotatable=0;labelPosition=right;points=[];portConstraint=eastwest;" vertex="1" parent="emEyEJCBUb9SOfy1nAko-57">
          <mxGeometry y="26" width="160" height="8" as="geometry" />
        </mxCell>
        <mxCell id="emEyEJCBUb9SOfy1nAko-59" value="addOrUpdateListener()&#xa;createLdsApi()&#xa;numConnections()&#xa;removeListener()&#xa;startWorkers()&#xa;stopWorkers()&#xa;beginListenerUpdate()&#xa;endListenerUpdate()&#xa;isWorkerStarted()" style="text;strokeColor=none;fillColor=none;align=left;verticalAlign=top;spacingLeft=4;spacingRight=4;overflow=hidden;rotatable=0;points=[[0,0.5],[1,0.5]];portConstraint=eastwest;" vertex="1" parent="emEyEJCBUb9SOfy1nAko-57">
          <mxGeometry y="34" width="160" height="146" as="geometry" />
        </mxCell>
        <mxCell id="emEyEJCBUb9SOfy1nAko-60" value="StopListenersType" style="swimlane;fontStyle=1;align=center;verticalAlign=top;childLayout=stackLayout;horizontal=1;startSize=26;horizontalStack=0;resizeParent=1;resizeParentMax=0;resizeLast=0;collapsible=1;marginBottom=0;" vertex="1" parent="1">
          <mxGeometry x="240" y="1890" width="160" height="80" as="geometry" />
        </mxCell>
        <mxCell id="emEyEJCBUb9SOfy1nAko-61" value="" style="line;strokeWidth=1;fillColor=none;align=left;verticalAlign=middle;spacingTop=-1;spacingLeft=3;spacingRight=3;rotatable=0;labelPosition=right;points=[];portConstraint=eastwest;" vertex="1" parent="emEyEJCBUb9SOfy1nAko-60">
          <mxGeometry y="26" width="160" height="8" as="geometry" />
        </mxCell>
        <mxCell id="emEyEJCBUb9SOfy1nAko-62" value="InboundOnly&#xa;All" style="text;strokeColor=none;fillColor=none;align=left;verticalAlign=top;spacingLeft=4;spacingRight=4;overflow=hidden;rotatable=0;points=[[0,0.5],[1,0.5]];portConstraint=eastwest;" vertex="1" parent="emEyEJCBUb9SOfy1nAko-60">
          <mxGeometry y="34" width="160" height="46" as="geometry" />
        </mxCell>
        <mxCell id="emEyEJCBUb9SOfy1nAko-63" value="ListenerState" style="swimlane;fontStyle=1;align=center;verticalAlign=top;childLayout=stackLayout;horizontal=1;startSize=26;horizontalStack=0;resizeParent=1;resizeParentMax=0;resizeLast=0;collapsible=1;marginBottom=0;" vertex="1" parent="1">
          <mxGeometry x="240" y="1980" width="160" height="100" as="geometry" />
        </mxCell>
        <mxCell id="emEyEJCBUb9SOfy1nAko-64" value="" style="line;strokeWidth=1;fillColor=none;align=left;verticalAlign=middle;spacingTop=-1;spacingLeft=3;spacingRight=3;rotatable=0;labelPosition=right;points=[];portConstraint=eastwest;" vertex="1" parent="emEyEJCBUb9SOfy1nAko-63">
          <mxGeometry y="26" width="160" height="8" as="geometry" />
        </mxCell>
        <mxCell id="emEyEJCBUb9SOfy1nAko-65" value="ACTIVE&#xa;WARMING&#xa;DRAINING&#xa;ALL" style="text;strokeColor=none;fillColor=none;align=left;verticalAlign=top;spacingLeft=4;spacingRight=4;overflow=hidden;rotatable=0;points=[[0,0.5],[1,0.5]];portConstraint=eastwest;" vertex="1" parent="emEyEJCBUb9SOfy1nAko-63">
          <mxGeometry y="34" width="160" height="66" as="geometry" />
        </mxCell>
        <mxCell id="emEyEJCBUb9SOfy1nAko-67" value="" style="endArrow=none;html=1;rounded=0;exitX=0.998;exitY=0.129;exitDx=0;exitDy=0;exitPerimeter=0;" edge="1" parent="1" source="emEyEJCBUb9SOfy1nAko-59" target="emEyEJCBUb9SOfy1nAko-62">
          <mxGeometry width="50" height="50" relative="1" as="geometry">
            <mxPoint x="140" y="1860" as="sourcePoint" />
            <mxPoint x="190" y="1810" as="targetPoint" />
          </mxGeometry>
        </mxCell>
        <mxCell id="emEyEJCBUb9SOfy1nAko-68" value="" style="endArrow=none;html=1;rounded=0;exitX=1.012;exitY=0.177;exitDx=0;exitDy=0;exitPerimeter=0;entryX=0;entryY=0.5;entryDx=0;entryDy=0;" edge="1" parent="1" source="emEyEJCBUb9SOfy1nAko-59" target="emEyEJCBUb9SOfy1nAko-65">
          <mxGeometry width="50" height="50" relative="1" as="geometry">
            <mxPoint x="199.6800000000003" y="1979.9340000000002" as="sourcePoint" />
            <mxPoint x="250" y="1971.0785758133825" as="targetPoint" />
          </mxGeometry>
        </mxCell>
        <mxCell id="emEyEJCBUb9SOfy1nAko-69" value="inner" style="text;html=1;align=center;verticalAlign=middle;resizable=0;points=[];autosize=1;strokeColor=none;fillColor=none;" vertex="1" parent="1">
          <mxGeometry x="190" y="1990" width="50" height="30" as="geometry" />
        </mxCell>
        <mxCell id="emEyEJCBUb9SOfy1nAko-70" value="inner" style="text;html=1;align=center;verticalAlign=middle;resizable=0;points=[];autosize=1;strokeColor=none;fillColor=none;" vertex="1" parent="1">
          <mxGeometry x="190" y="2027" width="50" height="30" as="geometry" />
        </mxCell>
        <mxCell id="emEyEJCBUb9SOfy1nAko-72" value="ListenerComponentFactory" style="swimlane;fontStyle=1;align=center;verticalAlign=top;childLayout=stackLayout;horizontal=1;startSize=26;horizontalStack=0;resizeParent=1;resizeParentMax=0;resizeLast=0;collapsible=1;marginBottom=0;" vertex="1" parent="1">
          <mxGeometry x="-220" y="2090" width="220" height="120" as="geometry" />
        </mxCell>
        <mxCell id="emEyEJCBUb9SOfy1nAko-73" value="" style="line;strokeWidth=1;fillColor=none;align=left;verticalAlign=middle;spacingTop=-1;spacingLeft=3;spacingRight=3;rotatable=0;labelPosition=right;points=[];portConstraint=eastwest;" vertex="1" parent="emEyEJCBUb9SOfy1nAko-72">
          <mxGeometry y="26" width="220" height="8" as="geometry" />
        </mxCell>
        <mxCell id="emEyEJCBUb9SOfy1nAko-74" value="createLdsApi()&#xa;createListenSocket()&#xa;createNetworkFilterFactoryList()&#xa;createListenerFilterFactoryList()&#xa;createUdpListenerFilterFactoryList()" style="text;strokeColor=none;fillColor=none;align=left;verticalAlign=top;spacingLeft=4;spacingRight=4;overflow=hidden;rotatable=0;points=[[0,0.5],[1,0.5]];portConstraint=eastwest;" vertex="1" parent="emEyEJCBUb9SOfy1nAko-72">
          <mxGeometry y="34" width="220" height="86" as="geometry" />
        </mxCell>
        <mxCell id="emEyEJCBUb9SOfy1nAko-75" value="Factory for creating listener components." style="text;html=1;align=center;verticalAlign=middle;resizable=0;points=[];autosize=1;strokeColor=none;fillColor=none;" vertex="1" parent="1">
          <mxGeometry x="-250" y="2067" width="240" height="30" as="geometry" />
        </mxCell>
        <mxCell id="emEyEJCBUb9SOfy1nAko-77" value="LdsApi" style="swimlane;fontStyle=1;align=center;verticalAlign=top;childLayout=stackLayout;horizontal=1;startSize=26;horizontalStack=0;resizeParent=1;resizeParentMax=0;resizeLast=0;collapsible=1;marginBottom=0;" vertex="1" parent="1">
          <mxGeometry x="-480" y="2110" width="190" height="60" as="geometry" />
        </mxCell>
        <mxCell id="emEyEJCBUb9SOfy1nAko-78" value="" style="line;strokeWidth=1;fillColor=none;align=left;verticalAlign=middle;spacingTop=-1;spacingLeft=3;spacingRight=3;rotatable=0;labelPosition=right;points=[];portConstraint=eastwest;" vertex="1" parent="emEyEJCBUb9SOfy1nAko-77">
          <mxGeometry y="26" width="190" height="8" as="geometry" />
        </mxCell>
        <mxCell id="emEyEJCBUb9SOfy1nAko-79" value="versionInfo()" style="text;strokeColor=none;fillColor=none;align=left;verticalAlign=top;spacingLeft=4;spacingRight=4;overflow=hidden;rotatable=0;points=[[0,0.5],[1,0.5]];portConstraint=eastwest;" vertex="1" parent="emEyEJCBUb9SOfy1nAko-77">
          <mxGeometry y="34" width="190" height="26" as="geometry" />
        </mxCell>
        <mxCell id="emEyEJCBUb9SOfy1nAko-80" value="" style="endArrow=none;html=1;rounded=0;entryX=0;entryY=0.5;entryDx=0;entryDy=0;exitX=1;exitY=0.5;exitDx=0;exitDy=0;" edge="1" parent="1" source="emEyEJCBUb9SOfy1nAko-79" target="emEyEJCBUb9SOfy1nAko-74">
          <mxGeometry width="50" height="50" relative="1" as="geometry">
            <mxPoint x="-370" y="2100" as="sourcePoint" />
            <mxPoint x="-320" y="2050" as="targetPoint" />
          </mxGeometry>
        </mxCell>
        <mxCell id="emEyEJCBUb9SOfy1nAko-81" value="ListenerManagerImpl" style="swimlane;fontStyle=1;align=center;verticalAlign=top;childLayout=stackLayout;horizontal=1;startSize=26;horizontalStack=0;resizeParent=1;resizeParentMax=0;resizeLast=0;collapsible=1;marginBottom=0;" vertex="1" parent="1">
          <mxGeometry x="30" y="2140" width="160" height="180" as="geometry" />
        </mxCell>
        <mxCell id="emEyEJCBUb9SOfy1nAko-82" value="" style="line;strokeWidth=1;fillColor=none;align=left;verticalAlign=middle;spacingTop=-1;spacingLeft=3;spacingRight=3;rotatable=0;labelPosition=right;points=[];portConstraint=eastwest;" vertex="1" parent="emEyEJCBUb9SOfy1nAko-81">
          <mxGeometry y="26" width="160" height="8" as="geometry" />
        </mxCell>
        <mxCell id="emEyEJCBUb9SOfy1nAko-83" value="addOrUpdateListener()&#xa;createLdsApi()&#xa;numConnections()&#xa;removeListener()&#xa;startWorkers()&#xa;stopWorkers()&#xa;beginListenerUpdate()&#xa;endListenerUpdate()&#xa;isWorkerStarted()" style="text;strokeColor=none;fillColor=none;align=left;verticalAlign=top;spacingLeft=4;spacingRight=4;overflow=hidden;rotatable=0;points=[[0,0.5],[1,0.5]];portConstraint=eastwest;" vertex="1" parent="emEyEJCBUb9SOfy1nAko-81">
          <mxGeometry y="34" width="160" height="146" as="geometry" />
        </mxCell>
        <mxCell id="emEyEJCBUb9SOfy1nAko-84" value="" style="endArrow=block;dashed=1;endFill=0;endSize=12;html=1;rounded=0;entryX=0.516;entryY=0.994;entryDx=0;entryDy=0;entryPerimeter=0;exitX=0.5;exitY=0;exitDx=0;exitDy=0;" edge="1" parent="1" source="emEyEJCBUb9SOfy1nAko-81" target="emEyEJCBUb9SOfy1nAko-59">
          <mxGeometry width="160" relative="1" as="geometry">
            <mxPoint x="-30" y="2150" as="sourcePoint" />
            <mxPoint x="130" y="2150" as="targetPoint" />
          </mxGeometry>
        </mxCell>
        <mxCell id="emEyEJCBUb9SOfy1nAko-85" value="ProdListenerComponentFactory" style="swimlane;fontStyle=1;align=center;verticalAlign=top;childLayout=stackLayout;horizontal=1;startSize=26;horizontalStack=0;resizeParent=1;resizeParentMax=0;resizeLast=0;collapsible=1;marginBottom=0;" vertex="1" parent="1">
          <mxGeometry x="-220" y="2230" width="220" height="120" as="geometry" />
        </mxCell>
        <mxCell id="emEyEJCBUb9SOfy1nAko-86" value="" style="line;strokeWidth=1;fillColor=none;align=left;verticalAlign=middle;spacingTop=-1;spacingLeft=3;spacingRight=3;rotatable=0;labelPosition=right;points=[];portConstraint=eastwest;" vertex="1" parent="emEyEJCBUb9SOfy1nAko-85">
          <mxGeometry y="26" width="220" height="8" as="geometry" />
        </mxCell>
        <mxCell id="emEyEJCBUb9SOfy1nAko-87" value="createLdsApi()&#xa;createListenSocket()&#xa;createNetworkFilterFactoryList()&#xa;createListenerFilterFactoryList()&#xa;createUdpListenerFilterFactoryList()" style="text;strokeColor=none;fillColor=none;align=left;verticalAlign=top;spacingLeft=4;spacingRight=4;overflow=hidden;rotatable=0;points=[[0,0.5],[1,0.5]];portConstraint=eastwest;" vertex="1" parent="emEyEJCBUb9SOfy1nAko-85">
          <mxGeometry y="34" width="220" height="86" as="geometry" />
        </mxCell>
        <mxCell id="emEyEJCBUb9SOfy1nAko-88" value="UdsListenSocket" style="swimlane;fontStyle=1;align=center;verticalAlign=top;childLayout=stackLayout;horizontal=1;startSize=26;horizontalStack=0;resizeParent=1;resizeParentMax=0;resizeLast=0;collapsible=1;marginBottom=0;" vertex="1" parent="1">
          <mxGeometry x="200" y="1109" width="160" height="60" as="geometry" />
        </mxCell>
        <mxCell id="emEyEJCBUb9SOfy1nAko-89" value="NetworkListenSocket&lt;T&gt;" style="swimlane;fontStyle=1;align=center;verticalAlign=top;childLayout=stackLayout;horizontal=1;startSize=26;horizontalStack=0;resizeParent=1;resizeParentMax=0;resizeLast=0;collapsible=1;marginBottom=0;" vertex="1" parent="1">
          <mxGeometry x="200" y="1035" width="160" height="50" as="geometry" />
        </mxCell>
        <mxCell id="emEyEJCBUb9SOfy1nAko-91" value="" style="endArrow=block;dashed=1;endFill=0;endSize=12;html=1;rounded=0;exitX=0;exitY=0.5;exitDx=0;exitDy=0;entryX=1.003;entryY=0.471;entryDx=0;entryDy=0;entryPerimeter=0;" edge="1" parent="1" source="emEyEJCBUb9SOfy1nAko-89" target="MYu3rAOzo87Xg6MAHjO_-111">
          <mxGeometry width="160" relative="1" as="geometry">
            <mxPoint x="220" y="1010" as="sourcePoint" />
            <mxPoint x="380" y="1010" as="targetPoint" />
          </mxGeometry>
        </mxCell>
        <mxCell id="emEyEJCBUb9SOfy1nAko-92" value="" style="endArrow=block;dashed=1;endFill=0;endSize=12;html=1;rounded=0;exitX=0;exitY=0.5;exitDx=0;exitDy=0;entryX=1;entryY=0.5;entryDx=0;entryDy=0;" edge="1" parent="1" source="emEyEJCBUb9SOfy1nAko-4" target="emEyEJCBUb9SOfy1nAko-89">
          <mxGeometry width="160" relative="1" as="geometry">
            <mxPoint x="460" y="1010" as="sourcePoint" />
            <mxPoint x="620" y="1010" as="targetPoint" />
          </mxGeometry>
        </mxCell>
        <mxCell id="emEyEJCBUb9SOfy1nAko-93" value="" style="endArrow=block;dashed=1;endFill=0;endSize=12;html=1;rounded=0;exitX=0;exitY=0.5;exitDx=0;exitDy=0;" edge="1" parent="1" source="emEyEJCBUb9SOfy1nAko-6">
          <mxGeometry width="160" relative="1" as="geometry">
            <mxPoint x="480" y="1029.9999999999998" as="sourcePoint" />
            <mxPoint x="360" y="1080" as="targetPoint" />
          </mxGeometry>
        </mxCell>
        <mxCell id="emEyEJCBUb9SOfy1nAko-95" value="&lt;b&gt;specific T = Stream&lt;/b&gt;" style="text;html=1;align=center;verticalAlign=middle;resizable=0;points=[];autosize=1;strokeColor=none;fillColor=none;" vertex="1" parent="1">
          <mxGeometry x="380" y="1012" width="130" height="30" as="geometry" />
        </mxCell>
        <mxCell id="emEyEJCBUb9SOfy1nAko-96" value="&lt;b&gt;specific T = Datagram&lt;/b&gt;" style="text;html=1;align=center;verticalAlign=middle;resizable=0;points=[];autosize=1;strokeColor=none;fillColor=none;" vertex="1" parent="1">
          <mxGeometry x="370" y="1088" width="150" height="30" as="geometry" />
        </mxCell>
        <mxCell id="emEyEJCBUb9SOfy1nAko-97" value="" style="endArrow=block;dashed=1;endFill=0;endSize=12;html=1;rounded=0;exitX=0;exitY=0.5;exitDx=0;exitDy=0;entryX=1;entryY=0.5;entryDx=0;entryDy=0;" edge="1" parent="1" source="emEyEJCBUb9SOfy1nAko-88" target="MYu3rAOzo87Xg6MAHjO_-111">
          <mxGeometry width="160" relative="1" as="geometry">
            <mxPoint x="210" y="1088" as="sourcePoint" />
            <mxPoint x="142.07999999999993" y="1088.0859999999998" as="targetPoint" />
          </mxGeometry>
        </mxCell>
        <mxCell id="emEyEJCBUb9SOfy1nAko-98" value="&lt;font style=&quot;font-size: 10px;&quot;&gt;only can be TCP/UDP&lt;/font&gt;" style="text;html=1;align=center;verticalAlign=middle;resizable=0;points=[];autosize=1;strokeColor=none;fillColor=none;" vertex="1" parent="1">
          <mxGeometry x="204" y="1005" width="140" height="30" as="geometry" />
        </mxCell>
        <mxCell id="emEyEJCBUb9SOfy1nAko-99" value="Type" style="swimlane;fontStyle=1;align=center;verticalAlign=top;childLayout=stackLayout;horizontal=1;startSize=26;horizontalStack=0;resizeParent=1;resizeParentMax=0;resizeLast=0;collapsible=1;marginBottom=0;" vertex="1" parent="1">
          <mxGeometry x="34" y="490" width="160" height="82" as="geometry" />
        </mxCell>
        <mxCell id="emEyEJCBUb9SOfy1nAko-100" value="Stream&#xa;Datagram" style="text;strokeColor=none;fillColor=none;align=left;verticalAlign=top;spacingLeft=4;spacingRight=4;overflow=hidden;rotatable=0;points=[[0,0.5],[1,0.5]];portConstraint=eastwest;" vertex="1" parent="emEyEJCBUb9SOfy1nAko-99">
          <mxGeometry y="26" width="160" height="44" as="geometry" />
        </mxCell>
        <mxCell id="emEyEJCBUb9SOfy1nAko-101" value="" style="line;strokeWidth=1;fillColor=none;align=left;verticalAlign=middle;spacingTop=-1;spacingLeft=3;spacingRight=3;rotatable=0;labelPosition=right;points=[];portConstraint=eastwest;" vertex="1" parent="emEyEJCBUb9SOfy1nAko-99">
          <mxGeometry y="70" width="160" height="12" as="geometry" />
        </mxCell>
        <mxCell id="emEyEJCBUb9SOfy1nAko-102" value="inner" style="endArrow=open;endSize=12;dashed=1;html=1;rounded=0;fontSize=10;entryX=0;entryY=0.5;entryDx=0;entryDy=0;" edge="1" parent="1" source="MYu3rAOzo87Xg6MAHjO_-31" target="emEyEJCBUb9SOfy1nAko-100">
          <mxGeometry width="160" relative="1" as="geometry">
            <mxPoint x="-190" y="620" as="sourcePoint" />
            <mxPoint x="-30" y="620" as="targetPoint" />
          </mxGeometry>
        </mxCell>
        <mxCell id="emEyEJCBUb9SOfy1nAko-103" value="" style="endArrow=block;dashed=1;endFill=0;endSize=12;html=1;rounded=0;fontSize=10;entryX=1;entryY=0.5;entryDx=0;entryDy=0;exitX=0;exitY=0.5;exitDx=0;exitDy=0;" edge="1" parent="1" source="emEyEJCBUb9SOfy1nAko-7" target="MYu3rAOzo87Xg6MAHjO_-32">
          <mxGeometry width="160" relative="1" as="geometry">
            <mxPoint x="80" y="770" as="sourcePoint" />
            <mxPoint x="240" y="770" as="targetPoint" />
          </mxGeometry>
        </mxCell>
        <mxCell id="emEyEJCBUb9SOfy1nAko-104" value="" style="endArrow=block;dashed=1;endFill=0;endSize=12;html=1;rounded=0;fontSize=10;entryX=0.5;entryY=1;entryDx=0;entryDy=0;exitX=0.5;exitY=0;exitDx=0;exitDy=0;" edge="1" parent="1" source="emEyEJCBUb9SOfy1nAko-7" target="emEyEJCBUb9SOfy1nAko-9">
          <mxGeometry width="160" relative="1" as="geometry">
            <mxPoint x="150" y="820" as="sourcePoint" />
            <mxPoint y="763" as="targetPoint" />
          </mxGeometry>
        </mxCell>
        <mxCell id="emEyEJCBUb9SOfy1nAko-105" value="ConnectionSocketImpl" style="swimlane;fontStyle=1;align=center;verticalAlign=top;childLayout=stackLayout;horizontal=1;startSize=26;horizontalStack=0;resizeParent=1;resizeParentMax=0;resizeLast=0;collapsible=1;marginBottom=0;" vertex="1" parent="1">
          <mxGeometry x="530" y="910" width="160" height="60" as="geometry" />
        </mxCell>
        <mxCell id="emEyEJCBUb9SOfy1nAko-106" value="" style="endArrow=block;dashed=1;endFill=0;endSize=12;html=1;rounded=0;fontSize=10;entryX=1;entryY=0;entryDx=0;entryDy=0;exitX=0;exitY=0.5;exitDx=0;exitDy=0;" edge="1" parent="1" source="emEyEJCBUb9SOfy1nAko-105" target="MYu3rAOzo87Xg6MAHjO_-54">
          <mxGeometry width="160" relative="1" as="geometry">
            <mxPoint x="80" y="970" as="sourcePoint" />
            <mxPoint x="240" y="970" as="targetPoint" />
          </mxGeometry>
        </mxCell>
        <mxCell id="emEyEJCBUb9SOfy1nAko-107" value="" style="endArrow=block;dashed=1;endFill=0;endSize=12;html=1;rounded=0;fontSize=10;entryX=0.5;entryY=1;entryDx=0;entryDy=0;exitX=0.5;exitY=0;exitDx=0;exitDy=0;edgeStyle=orthogonalEdgeStyle;" edge="1" parent="1" source="emEyEJCBUb9SOfy1nAko-105" target="emEyEJCBUb9SOfy1nAko-7">
          <mxGeometry width="160" relative="1" as="geometry">
            <mxPoint x="100" y="890" as="sourcePoint" />
            <mxPoint x="-110" y="950" as="targetPoint" />
          </mxGeometry>
        </mxCell>
        <mxCell id="emEyEJCBUb9SOfy1nAko-108" value="AcceptedSocketImpl" style="swimlane;fontStyle=1;align=center;verticalAlign=top;childLayout=stackLayout;horizontal=1;startSize=26;horizontalStack=0;resizeParent=1;resizeParentMax=0;resizeLast=0;collapsible=1;marginBottom=0;" vertex="1" parent="1">
          <mxGeometry x="825" y="960" width="160" height="60" as="geometry" />
        </mxCell>
        <mxCell id="emEyEJCBUb9SOfy1nAko-109" value="" style="endArrow=block;dashed=1;endFill=0;endSize=12;html=1;rounded=0;fontSize=10;entryX=1;entryY=0.5;entryDx=0;entryDy=0;exitX=0;exitY=0.5;exitDx=0;exitDy=0;" edge="1" parent="1" source="emEyEJCBUb9SOfy1nAko-108" target="emEyEJCBUb9SOfy1nAko-105">
          <mxGeometry width="160" relative="1" as="geometry">
            <mxPoint x="490" y="1010" as="sourcePoint" />
            <mxPoint x="650" y="1010" as="targetPoint" />
          </mxGeometry>
        </mxCell>
        <mxCell id="emEyEJCBUb9SOfy1nAko-110" value="&lt;b&gt;socket used for server side connections&lt;br&gt;&lt;/b&gt;" style="text;html=1;align=center;verticalAlign=middle;resizable=0;points=[];autosize=1;strokeColor=none;fillColor=none;" vertex="1" parent="1">
          <mxGeometry x="780" y="932" width="250" height="30" as="geometry" />
        </mxCell>
        <mxCell id="emEyEJCBUb9SOfy1nAko-111" value="ClientSocketImpl" style="swimlane;fontStyle=1;align=center;verticalAlign=top;childLayout=stackLayout;horizontal=1;startSize=26;horizontalStack=0;resizeParent=1;resizeParentMax=0;resizeLast=0;collapsible=1;marginBottom=0;" vertex="1" parent="1">
          <mxGeometry x="823" y="858" width="160" height="60" as="geometry" />
        </mxCell>
        <mxCell id="emEyEJCBUb9SOfy1nAko-112" value="&lt;b&gt;socket used for client side connections&lt;br&gt;&lt;/b&gt;" style="text;html=1;align=center;verticalAlign=middle;resizable=0;points=[];autosize=1;strokeColor=none;fillColor=none;" vertex="1" parent="1">
          <mxGeometry x="780" y="830" width="250" height="30" as="geometry" />
        </mxCell>
        <mxCell id="emEyEJCBUb9SOfy1nAko-113" value="" style="endArrow=block;dashed=1;endFill=0;endSize=12;html=1;rounded=0;fontSize=10;entryX=1;entryY=0;entryDx=0;entryDy=0;exitX=0;exitY=0.5;exitDx=0;exitDy=0;" edge="1" parent="1" source="emEyEJCBUb9SOfy1nAko-111" target="emEyEJCBUb9SOfy1nAko-105">
          <mxGeometry width="160" relative="1" as="geometry">
            <mxPoint x="749.9999999999995" y="950" as="sourcePoint" />
            <mxPoint x="699.9999999999995" y="950" as="targetPoint" />
          </mxGeometry>
        </mxCell>
        <mxCell id="emEyEJCBUb9SOfy1nAko-119" value="&lt;b&gt;instance for network address&lt;/b&gt;" style="text;html=1;align=center;verticalAlign=middle;resizable=0;points=[];autosize=1;strokeColor=none;fillColor=none;fontSize=10;" vertex="1" parent="1">
          <mxGeometry x="505" y="1560" width="190" height="30" as="geometry" />
        </mxCell>
        <mxCell id="emEyEJCBUb9SOfy1nAko-120" value="Instance(InstanceConstSharedPtr)" style="swimlane;fontStyle=1;align=center;verticalAlign=top;childLayout=stackLayout;horizontal=1;startSize=26;horizontalStack=0;resizeParent=1;resizeParentMax=0;resizeLast=0;collapsible=1;marginBottom=0;" vertex="1" parent="1">
          <mxGeometry x="450" y="1420" width="290" height="140" as="geometry" />
        </mxCell>
        <mxCell id="emEyEJCBUb9SOfy1nAko-121" value="asString()&#xa;ip()&#xa; pipe()&#xa;sockAddr()&#xa;sockAddrLen()&#xa;envoyInternalAddress()&#xa;type()&#xa;" style="text;strokeColor=none;fillColor=none;align=left;verticalAlign=top;spacingLeft=4;spacingRight=4;overflow=hidden;rotatable=0;points=[[0,0.5],[1,0.5]];portConstraint=eastwest;" vertex="1" parent="emEyEJCBUb9SOfy1nAko-120">
          <mxGeometry y="26" width="290" height="114" as="geometry" />
        </mxCell>
        <mxCell id="emEyEJCBUb9SOfy1nAko-123" value="Use" style="endArrow=open;endSize=12;dashed=1;html=1;rounded=0;fontSize=10;entryX=0.5;entryY=1;entryDx=0;entryDy=0;exitX=0.5;exitY=0;exitDx=0;exitDy=0;" edge="1" parent="1" source="emEyEJCBUb9SOfy1nAko-114" target="MYu3rAOzo87Xg6MAHjO_-37">
          <mxGeometry width="160" relative="1" as="geometry">
            <mxPoint x="720" y="1395" as="sourcePoint" />
            <mxPoint x="880" y="1395" as="targetPoint" />
          </mxGeometry>
        </mxCell>
        <mxCell id="emEyEJCBUb9SOfy1nAko-124" value="Use" style="endArrow=open;endSize=12;dashed=1;html=1;rounded=0;fontSize=10;entryX=0.5;entryY=1;entryDx=0;entryDy=0;" edge="1" parent="1" target="MYu3rAOzo87Xg6MAHjO_-40">
          <mxGeometry width="160" relative="1" as="geometry">
            <mxPoint x="550" y="1335" as="sourcePoint" />
            <mxPoint x="435" y="1279" as="targetPoint" />
          </mxGeometry>
        </mxCell>
        <mxCell id="emEyEJCBUb9SOfy1nAko-125" value="Use" style="endArrow=open;endSize=12;dashed=1;html=1;rounded=0;fontSize=10;entryX=1;entryY=0.5;entryDx=0;entryDy=0;" edge="1" parent="1" target="MYu3rAOzo87Xg6MAHjO_-35">
          <mxGeometry width="160" relative="1" as="geometry">
            <mxPoint x="550" y="1335" as="sourcePoint" />
            <mxPoint x="435" y="1279" as="targetPoint" />
          </mxGeometry>
        </mxCell>
        <mxCell id="emEyEJCBUb9SOfy1nAko-126" value="EnvoyInternalAddress" style="swimlane;fontStyle=1;align=center;verticalAlign=top;childLayout=stackLayout;horizontal=1;startSize=26;horizontalStack=0;resizeParent=1;resizeParentMax=0;resizeLast=0;collapsible=1;marginBottom=0;" vertex="1" parent="1">
          <mxGeometry x="700" y="1335" width="150" height="38" as="geometry" />
        </mxCell>
        <mxCell id="emEyEJCBUb9SOfy1nAko-127" value="" style="line;strokeWidth=1;fillColor=none;align=left;verticalAlign=middle;spacingTop=-1;spacingLeft=3;spacingRight=3;rotatable=0;labelPosition=right;points=[];portConstraint=eastwest;" vertex="1" parent="emEyEJCBUb9SOfy1nAko-126">
          <mxGeometry y="26" width="150" height="12" as="geometry" />
        </mxCell>
        <mxCell id="emEyEJCBUb9SOfy1nAko-128" value="Type" style="swimlane;fontStyle=1;align=center;verticalAlign=top;childLayout=stackLayout;horizontal=1;startSize=26;horizontalStack=0;resizeParent=1;resizeParentMax=0;resizeLast=0;collapsible=1;marginBottom=0;" vertex="1" parent="1">
          <mxGeometry x="330" y="1334" width="160" height="62" as="geometry" />
        </mxCell>
        <mxCell id="emEyEJCBUb9SOfy1nAko-129" value="Ip, Pipe, EnvoyInternal" style="text;strokeColor=none;fillColor=none;align=left;verticalAlign=top;spacingLeft=4;spacingRight=4;overflow=hidden;rotatable=0;points=[[0,0.5],[1,0.5]];portConstraint=eastwest;" vertex="1" parent="emEyEJCBUb9SOfy1nAko-128">
          <mxGeometry y="26" width="160" height="24" as="geometry" />
        </mxCell>
        <mxCell id="emEyEJCBUb9SOfy1nAko-130" value="" style="line;strokeWidth=1;fillColor=none;align=left;verticalAlign=middle;spacingTop=-1;spacingLeft=3;spacingRight=3;rotatable=0;labelPosition=right;points=[];portConstraint=eastwest;" vertex="1" parent="emEyEJCBUb9SOfy1nAko-128">
          <mxGeometry y="50" width="160" height="12" as="geometry" />
        </mxCell>
        <mxCell id="emEyEJCBUb9SOfy1nAko-131" value="Use" style="endArrow=open;endSize=12;dashed=1;html=1;rounded=0;fontSize=10;entryX=0.5;entryY=1;entryDx=0;entryDy=0;exitX=0.5;exitY=0;exitDx=0;exitDy=0;" edge="1" parent="1" source="emEyEJCBUb9SOfy1nAko-120" target="emEyEJCBUb9SOfy1nAko-128">
          <mxGeometry width="160" relative="1" as="geometry">
            <mxPoint x="559.9999999999998" y="1345" as="sourcePoint" />
            <mxPoint x="380.0000000000002" y="1289" as="targetPoint" />
          </mxGeometry>
        </mxCell>
        <mxCell id="emEyEJCBUb9SOfy1nAko-132" value="Use" style="endArrow=open;endSize=12;dashed=1;html=1;rounded=0;fontSize=10;entryX=0.5;entryY=1;entryDx=0;entryDy=0;exitX=0.489;exitY=0.007;exitDx=0;exitDy=0;exitPerimeter=0;" edge="1" parent="1" source="emEyEJCBUb9SOfy1nAko-120" target="emEyEJCBUb9SOfy1nAko-114">
          <mxGeometry width="160" relative="1" as="geometry">
            <mxPoint x="590" y="1415" as="sourcePoint" />
            <mxPoint x="419.9999999999998" y="1406" as="targetPoint" />
          </mxGeometry>
        </mxCell>
        <mxCell id="emEyEJCBUb9SOfy1nAko-133" value="Use" style="endArrow=open;endSize=12;dashed=1;html=1;rounded=0;fontSize=10;entryX=0.5;entryY=1;entryDx=0;entryDy=0;exitX=0.485;exitY=0.007;exitDx=0;exitDy=0;exitPerimeter=0;" edge="1" parent="1" source="emEyEJCBUb9SOfy1nAko-120" target="MYu3rAOzo87Xg6MAHjO_-43">
          <mxGeometry width="160" relative="1" as="geometry">
            <mxPoint x="601.81" y="1430.98" as="sourcePoint" />
            <mxPoint x="557.5000000000002" y="1383" as="targetPoint" />
          </mxGeometry>
        </mxCell>
        <mxCell id="emEyEJCBUb9SOfy1nAko-134" value="Use" style="endArrow=open;endSize=12;dashed=1;html=1;rounded=0;fontSize=10;entryX=0.5;entryY=1;entryDx=0;entryDy=0;exitX=0.5;exitY=0;exitDx=0;exitDy=0;" edge="1" parent="1" source="emEyEJCBUb9SOfy1nAko-120" target="emEyEJCBUb9SOfy1nAko-126">
          <mxGeometry width="160" relative="1" as="geometry">
            <mxPoint x="590" y="1425" as="sourcePoint" />
            <mxPoint x="652.5" y="1382" as="targetPoint" />
          </mxGeometry>
        </mxCell>
        <mxCell id="emEyEJCBUb9SOfy1nAko-135" value="set who" style="endArrow=open;endSize=12;dashed=1;html=1;rounded=0;fontSize=10;exitX=1;exitY=0.5;exitDx=0;exitDy=0;entryX=0;entryY=0.5;entryDx=0;entryDy=0;" edge="1" parent="1" source="MYu3rAOzo87Xg6MAHjO_-57" target="emEyEJCBUb9SOfy1nAko-121">
          <mxGeometry width="160" relative="1" as="geometry">
            <mxPoint x="380" y="1366" as="sourcePoint" />
            <mxPoint x="540" y="1366" as="targetPoint" />
          </mxGeometry>
        </mxCell>
        <mxCell id="emEyEJCBUb9SOfy1nAko-137" value="" style="endArrow=diamondThin;endFill=1;endSize=24;html=1;rounded=0;fontSize=10;entryX=0.472;entryY=1.01;entryDx=0;entryDy=0;entryPerimeter=0;exitX=0.5;exitY=0;exitDx=0;exitDy=0;" edge="1" parent="1" source="MYu3rAOzo87Xg6MAHjO_-56" target="MYu3rAOzo87Xg6MAHjO_-111">
          <mxGeometry width="160" relative="1" as="geometry">
            <mxPoint x="230" y="1270" as="sourcePoint" />
            <mxPoint x="390" y="1270" as="targetPoint" />
          </mxGeometry>
        </mxCell>
        <mxCell id="emEyEJCBUb9SOfy1nAko-138" value="" style="endArrow=block;dashed=1;endFill=0;endSize=12;html=1;rounded=0;fontSize=10;entryX=0.5;entryY=0;entryDx=0;entryDy=0;" edge="1" parent="1" source="MYu3rAOzo87Xg6MAHjO_-57" target="MYu3rAOzo87Xg6MAHjO_-27">
          <mxGeometry width="160" relative="1" as="geometry">
            <mxPoint x="150" y="1420" as="sourcePoint" />
            <mxPoint x="310" y="1420" as="targetPoint" />
          </mxGeometry>
        </mxCell>
        <mxCell id="emEyEJCBUb9SOfy1nAko-139" value="has a" style="text;html=1;align=center;verticalAlign=middle;resizable=0;points=[];autosize=1;strokeColor=none;fillColor=none;fontSize=10;" vertex="1" parent="1">
          <mxGeometry x="40" y="1230" width="50" height="30" as="geometry" />
        </mxCell>
      </root>
    </mxGraphModel>
  </diagram>
</mxfile>
